{
	"asset":{
		"generator":"Khronos glTF Blender I/O v3.5.30",
		"version":"2.0"
	},
	"scene":0,
	"scenes":[
		{
			"name":"Scene",
			"nodes":[
				0
			]
		}
	],
	"nodes":[
		{
			"mesh":0,
			"name":"\u5e73\u9762",
			"scale":[
				30,
				1,
				120
			]
		}
	],
	"meshes":[
		{
			"name":"\u5e73\u9762.001",
			"primitives":[
				{
					"attributes":{
						"POSITION":0,
						"TEXCOORD_0":1,
						"NORMAL":2
					},
					"indices":3
				}
			]
		}
	],
	"accessors":[
		{
			"bufferView":0,
			"componentType":5126,
			"count":1710,
			"max":[
				1.4089118242263794,
				20.193950653076172,
				0.9399253129959106
			],
			"min":[
				-1.3229384422302246,
				0,
				-1
			],
			"type":"VEC3"
		},
		{
			"bufferView":1,
			"componentType":5126,
			"count":1710,
			"type":"VEC2"
		},
		{
			"bufferView":2,
			"componentType":5126,
			"count":1710,
			"type":"VEC3"
		},
		{
			"bufferView":3,
			"componentType":5123,
			"count":4098,
			"type":"SCALAR"
		}
	],
	"bufferViews":[
		{
			"buffer":0,
			"byteLength":20520,
			"byteOffset":0,
			"target":34962
		},
		{
			"buffer":0,
			"byteLength":13680,
			"byteOffset":20520,
			"target":34962
		},
		{
			"buffer":0,
			"byteLength":20520,
			"byteOffset":34200,
			"target":34962
		},
		{
			"buffer":0,
			"byteLength":8196,
			"byteOffset":54720,
			"target":34963
		}
	],
	"buffers":[
		{
			"byteLength":62916,
			"uri":"data:application/octet-stream;base64,"
		}
	]
}
