# Blender 3.5.0
# www.blender.org
mtllib improvisedStraight.mtl
o Cube
v -0.250000 0.500000 -2.499476
v 0.250000 0.500000 -2.499476
v 0.000000 0.659128 2.800961
v 0.000000 -0.659128 2.800961
v -0.071181 0.263014 2.500000
v -0.250000 0.500000 1.801789
v -0.071181 -0.263014 2.500000
v -0.250000 -0.500000 1.801789
v 0.071181 0.263014 2.500000
v 0.250000 0.500000 1.801789
v 0.250000 -0.500000 1.801789
v 0.071181 -0.263014 2.500000
v -0.000000 0.000000 -3.247949
v -0.250000 -0.500000 -2.499476
v 0.250000 -0.500000 -2.499476
vn -0.0000 -1.0000 -0.0000
vn -0.0000 1.0000 -0.0000
vn 1.0000 -0.0000 -0.0000
vn 0.9732 -0.0000 0.2302
vn -0.0000 -0.9469 0.3214
vn 0.9687 -0.0000 0.2481
vn -0.9687 -0.0000 0.2481
vn -0.0000 0.9469 0.3214
vn -1.0000 -0.0000 -0.0000
vn -0.0000 0.6050 -0.7962
vn -0.9732 -0.0000 0.2302
vn -0.0000 -0.6050 -0.7962
vn -0.9485 -0.0000 -0.3168
vn 0.9485 -0.0000 -0.3168
vn -0.0000 0.8315 -0.5555
vn -0.0000 -0.8315 -0.5555
vt 0.625000 0.500000
vt 0.625000 0.750000
vt 0.590089 0.034911
vt 0.590089 0.215089
vt 0.409911 0.034911
vt 0.409911 0.215089
vt 0.590089 0.215089
vt 0.840089 0.500000
vt 0.625000 0.250000
vt 0.625000 0.284911
vt 0.409911 0.215089
vt 0.159911 0.500000
vt 0.375000 0.250000
vt 0.375000 0.284911
vt 0.590089 0.034911
vt 0.625000 0.965089
vt 0.840089 0.750000
vt 0.625000 0.000000
vt 0.375000 0.965089
vt 0.159911 0.750000
vt 0.375000 0.000000
vt 0.409911 0.034911
vt 0.412450 0.537450
vt 0.587550 0.712550
vt 0.587550 0.537450
vt 0.412450 0.712550
vt 0.375000 0.500000
vt 0.375000 0.750000
s 0
usemtl Material
f 14/27/1 11/20/1 8/12/1
f 6/8/2 2/2/2 1/1/2
f 2/2/3 11/19/3 15/28/3
f 9/15/4 4/5/4 12/22/4
f 2/2/3 10/16/3 11/19/3
f 11/21/5 7/11/5 8/13/5
f 10/18/6 12/22/6 11/21/6
f 8/14/7 5/7/7 6/10/7
f 6/9/8 9/15/8 10/18/8
f 6/10/9 14/27/9 8/14/9
f 9/15/10 5/7/10 3/3/10
f 7/11/11 3/4/11 5/7/11
f 7/11/12 12/22/12 4/6/12
f 13/23/13 14/27/13 1/1/13
f 2/2/14 15/28/14 13/24/14
f 1/1/15 2/2/15 13/25/15
f 15/28/16 14/27/16 13/26/16
f 14/27/1 15/28/1 11/20/1
f 6/8/2 10/17/2 2/2/2
f 9/15/4 3/3/4 4/5/4
f 11/21/5 12/22/5 7/11/5
f 10/18/6 9/15/6 12/22/6
f 8/14/7 7/11/7 5/7/7
f 6/9/8 5/7/8 9/15/8
f 6/10/9 1/1/9 14/27/9
f 7/11/11 4/6/11 3/4/11
